<svg width="576" height="167" viewBox="0 0 576 167" fill="none" xmlns="http://www.w3.org/2000/svg">
<path d="M429.002 1.50018C429.502 0.000326514 476.502 -5.49982 468.502 39.0002H471.002C471.002 39.0002 476.002 56.5002 454.002 75.5002C452.502 77.5002 455.502 80.0002 455.502 80.0002C455.502 80.0002 449.502 79.0002 450.002 69.5002C450.502 60.0002 461.002 48.0002 459.002 46.5002H454.502C454.502 46.5002 469.502 25.0002 445.502 10.0002C445.502 10.0002 448.5 14 449 23C449.889 39.0002 433.002 48.5 433.002 67C433 101.5 485.5 87 485.5 87C485.5 87 485.004 94 455.502 97.5C448 107 450.5 118.5 444.5 124C441.5 127.5 438.5 128.5 431.5 133C423.5 139.5 423 151 423 151C423 151 428.5 159.5 431.5 159.5C434.5 159.5 435 156.5 440.5 156.5C446 156.5 448 166 446.5 166C445 166 419.5 166 419.5 166C419.5 166 417 163.5 417 154C417 144.5 419.5 134.5 427.002 129C427.002 129 432 128 436 122.5C439 108 443 99.5 443 99.5C443 99.5 432 99.5 427.002 94C422.003 88.5 421 80.0002 421 80.0002L427.002 78.5C427.002 78.5 400.001 67 427.002 37V44C427.002 44 455.502 24.5 429.002 1.50018Z" fill="white"/>
<path d="M423 151C423 151 423.5 143.499 435 136C435 136 442.5 134 452.5 129C456.5 127 453.5 121.5 454 121C454.5 120.5 455.5 121.5 459 123C463.689 123 464 106 464 106C464 106 489 117.5 507 100C497.385 125 499.5 128 499.5 128C499.5 128 502 124.5 503 125C504 125.5 515.5 161 515.5 161C515.5 161 507 157.5 499.5 136C499.5 136 496.5 139.5 495.5 139C494.5 138.5 490.5 129 491.5 121.5C482.5 123 473.5 120.5 473.5 120.5C473.5 120.5 475 121 475 127C475 133 471 142 471 144.5C471 148 475 157 477.5 157C480 157 479 155 483 155C487 155 489 161.5 488 162C487 162.5 475.5 162 472 162C468.5 162 461 146 461 144.5C461 143 459 135.5 456 135C446.5 137.5 429 143 427 155C425 167 427 157.5 427 157.5L423 151Z" fill="white"/>
<path d="M564.5 75.3999C560.851 55 544.5 36.9999 532 30.9998C532.5 29.9997 541 31.5 541.5 30.9998C541.5 30.9998 537.5 26 523.5 24.4998C521.5 20 511.5 6.99985 510.5 7.49985C509.5 7.99985 511.5 12.4998 511 14.9998C510.5 17.4998 507.5 18.9998 507.5 18.9998C507.5 18.9998 496 27.9998 497.5 27.9998C499 27.9998 505 22.4998 505 23.4998C505 24.4998 499 29.4998 500 29.4998C501 29.4998 505 27.4998 505 28.4998C505 29.4998 480 36.9999 483.5 40.4999C485.5 42.4999 487 43.4997 488 43.9999C489 44.5 493.5 44.2495 494.5 44C495.5 43.7505 507.5 36.9999 511.5 35.9999C515.5 34.9999 525 35.9999 525 36.9999C525 37.9999 513 41.0453 515.5 41.4999C521 42.4999 528.5 40.9999 537 51.9999C537 51.9999 539.5 56.4999 539.5 62.4999C539 74.4999 531 80.9999 531 80.9999C531 80.9999 530.5 81.9999 531.5 71.4999C532.5 60.9999 525.5 57.4999 525.5 57.4999C525.5 57.4999 526 60.4999 526 62.9999C525.5 84.4999 499 83.9999 499 83.9999C499 83.9999 516 73.4999 515.5 61.4999C515.5 59.4999 513.5 48.4999 506 47.9999C500.5 46.4999 491.5 47.9999 488.5 47.9999C485.5 47.9999 477 39.4999 477 36.9999C477 34.4999 492.5 30.4998 493.5 29.4998C494.5 28.4998 494 24.4998 494 23.4998C494 22.4998 500 19.9998 500.5 18.9998C501 17.9998 502.5 6.99985 503.5 6.99985C504.5 6.99985 504.5 13.4998 505.5 16.4998C508.5 15.9998 506 3.99985 508.5 2.99985C511 1.99985 522.5 8.49985 528 17.4998C564.5 29 568 42.4999 568 42.4999C568 42.4999 551.5 34.9999 551 35.4999C550.5 35.9999 575.5 48 575.5 83.9999C575.5 96 573.5 102 573.5 102L565.5 90.4999C565.5 90.4999 566.889 96.5 567 99.5C567.5 113 557 124 556 124C553.5 114.5 547.5 116.5 547.5 116.5C547.5 116.5 550.5 118 550.5 122.5C550.5 127 544.5 138 545 143.5C545.864 153 548 154 549 154C550 154 552 151 556 150.5C561 149.875 566.5 160.5 564.5 162C562 162 546 162 543 162C540 162 536 148.5 537 146.5C536 146.5 534.5 149 534.5 149C534.5 149 531 143 532 136.5C531.5 136.5 529.5 140 529.5 140C529.5 140 528 136 528 132.5C528 129 530.5 123.5 530 123C529.5 122.5 527 123.5 526 123C525 122.5 527 114 527 114C527 114 519.5 120 520.5 130C521.65 141.5 523.5 147.5 523.5 147.5C523.5 147.5 524.5 156 525.5 156.5C526.5 157 527.5 155 529.5 155C531.5 155 535.5 157.5 537 162C537 162 537.5 165.5 537 166.5C534.5 166.5 537 166.5 533.5 166.5C532.5 165 533.5 160.5 528 159C525 159 524.5 161 523 161C521.5 160 519 157 517 137C515.5 137 514.5 139 514.5 139C514.5 139 513.5 138 513.5 131C513.5 124 515 120.5 515 120.5C514 119.5 509 127 509 127C510 102.5 532 88.9999 532 88.9999C532 88.9999 531 100.5 524 107C526.5 106.5 555 98 548.5 68C556.5 67.5 564 76.5 564.5 75.3999Z" fill="white"/>
<path d="M3.69 18H16.11L25.74 55.71H25.92V18H34.74V81H24.57L12.69 35.01H12.51V81H3.69V18ZM42.0982 18H51.9982V81H42.0982V18ZM73.4527 81.9C68.6527 81.9 64.9927 80.55 62.4727 77.85C59.9527 75.09 58.6927 71.16 58.6927 66.06V32.94C58.6927 27.84 59.9527 23.94 62.4727 21.24C64.9927 18.48 68.6527 17.1 73.4527 17.1C78.2527 17.1 81.9127 18.48 84.4327 21.24C86.9527 23.94 88.2127 27.84 88.2127 32.94V38.34H78.8527V32.31C78.8527 28.17 77.1427 26.1 73.7227 26.1C70.3027 26.1 68.5927 28.17 68.5927 32.31V66.78C68.5927 70.86 70.3027 72.9 73.7227 72.9C77.1427 72.9 78.8527 70.86 78.8527 66.78V54.45H73.9027V45.45H88.2127V66.06C88.2127 71.16 86.9527 75.09 84.4327 77.85C81.9127 80.55 78.2527 81.9 73.4527 81.9ZM94.5689 18H104.469V43.65H115.089V18H124.989V81H115.089V52.65H104.469V81H94.5689V18ZM140.102 27H129.752V18H160.352V27H150.002V81H140.102V27ZM173.764 27H163.414V18H194.014V27H183.664V81H173.764V27ZM198.807 18H213.477C218.577 18 222.297 19.2 224.637 21.6C226.977 23.94 228.147 27.57 228.147 32.49V36.36C228.147 42.9 225.987 47.04 221.667 48.78V48.96C224.067 49.68 225.747 51.15 226.707 53.37C227.727 55.59 228.237 58.56 228.237 62.28V73.35C228.237 75.15 228.297 76.62 228.417 77.76C228.537 78.84 228.837 79.92 229.317 81H219.237C218.877 79.98 218.637 79.02 218.517 78.12C218.397 77.22 218.337 75.6 218.337 73.26V61.74C218.337 58.86 217.857 56.85 216.897 55.71C215.997 54.57 214.407 54 212.127 54H208.707V81H198.807V18ZM212.307 45C214.287 45 215.757 44.49 216.717 43.47C217.737 42.45 218.247 40.74 218.247 38.34V33.48C218.247 31.2 217.827 29.55 216.987 28.53C216.207 27.51 214.947 27 213.207 27H208.707V45H212.307ZM242.756 18H256.166L266.426 81H256.526L254.726 68.49V68.67H243.476L241.676 81H232.496L242.756 18ZM253.556 60.12L249.146 28.98H248.966L244.646 60.12H253.556ZM271.229 18H297.419V27H281.129V44.55H293.909V53.55H281.129V81H271.229V18ZM302.167 18H328.357V27H312.067V44.55H324.847V53.55H312.067V81H302.167V18ZM333.104 18H343.004V81H333.104V18ZM364.369 81.9C359.629 81.9 355.999 80.55 353.479 77.85C351.019 75.15 349.789 71.34 349.789 66.42V32.58C349.789 27.66 351.019 23.85 353.479 21.15C355.999 18.45 359.629 17.1 364.369 17.1C369.109 17.1 372.709 18.45 375.169 21.15C377.689 23.85 378.949 27.66 378.949 32.58V39.24H369.589V31.95C369.589 28.05 367.939 26.1 364.639 26.1C361.339 26.1 359.689 28.05 359.689 31.95V67.14C359.689 70.98 361.339 72.9 364.639 72.9C367.939 72.9 369.589 70.98 369.589 67.14V57.51H378.949V66.42C378.949 71.34 377.689 75.15 375.169 77.85C372.709 80.55 369.109 81.9 364.369 81.9Z" fill="white"/>
<path d="M264.69 89H277.11L286.74 126.71H286.92V89H295.74V152H285.57L273.69 106.01H273.51V152H264.69V89ZM300.758 89H310.298L314.708 137.42H314.888L319.568 89H330.368L335.048 137.42H335.228L339.638 89H348.188L341.798 152H329.468L324.968 109.52H324.788L320.288 152H307.148L300.758 89ZM366.066 152.9C361.266 152.9 357.636 151.55 355.176 148.85C352.716 146.09 351.486 142.16 351.486 137.06V133.46H360.846V137.78C360.846 141.86 362.556 143.9 365.976 143.9C367.656 143.9 368.916 143.42 369.756 142.46C370.656 141.44 371.106 139.82 371.106 137.6C371.106 134.96 370.506 132.65 369.306 130.67C368.106 128.63 365.886 126.2 362.646 123.38C358.566 119.78 355.716 116.54 354.096 113.66C352.476 110.72 351.666 107.42 351.666 103.76C351.666 98.78 352.926 94.94 355.446 92.24C357.966 89.48 361.626 88.1 366.426 88.1C371.166 88.1 374.736 89.48 377.136 92.24C379.596 94.94 380.826 98.84 380.826 103.94V106.55H371.466V103.31C371.466 101.15 371.046 99.59 370.206 98.63C369.366 97.61 368.136 97.1 366.516 97.1C363.216 97.1 361.566 99.11 361.566 103.13C361.566 105.41 362.166 107.54 363.366 109.52C364.626 111.5 366.876 113.9 370.116 116.72C374.256 120.32 377.106 123.59 378.666 126.53C380.226 129.47 381.006 132.92 381.006 136.88C381.006 142.04 379.716 146 377.136 148.76C374.616 151.52 370.926 152.9 366.066 152.9Z" fill="white"/>
</svg>
