<svg width="120" height="35" viewBox="0 0 120 35" fill="none" xmlns="http://www.w3.org/2000/svg">
<path d="M27.982 7.035C27.5013 7.035 27.0673 6.92767 26.68 6.713C26.2927 6.49367 25.987 6.195 25.763 5.817C25.5437 5.439 25.434 5.01667 25.434 4.55C25.434 4.08333 25.5437 3.661 25.763 3.283C25.987 2.905 26.2927 2.60867 26.68 2.394C27.0673 2.17467 27.5013 2.065 27.982 2.065C28.4627 2.065 28.8967 2.17233 29.284 2.387C29.6713 2.60167 29.9747 2.898 30.194 3.276C30.418 3.654 30.53 4.07867 30.53 4.55C30.53 5.02133 30.418 5.446 30.194 5.824C29.9747 6.202 29.6713 6.49833 29.284 6.713C28.8967 6.92767 28.4627 7.035 27.982 7.035ZM27.982 6.706C28.3927 6.706 28.7637 6.61267 29.095 6.426C29.4263 6.23933 29.6877 5.98267 29.879 5.656C30.0703 5.32467 30.166 4.956 30.166 4.55C30.166 4.144 30.0703 3.77767 29.879 3.451C29.6877 3.11967 29.4263 2.86067 29.095 2.674C28.7637 2.48733 28.3927 2.394 27.982 2.394C27.5713 2.394 27.198 2.48733 26.862 2.674C26.5307 2.86067 26.2693 3.11967 26.078 3.451C25.8867 3.77767 25.791 4.144 25.791 4.55C25.791 4.956 25.8867 5.32467 26.078 5.656C26.2693 5.98267 26.5307 6.23933 26.862 6.426C27.198 6.61267 27.5713 6.706 27.982 6.706ZM31.7238 3.346H32.0738V5.012H34.5518V3.346H34.9018V7H34.5518V5.32H32.0738V7H31.7238V3.346ZM39.2692 3.346V7H38.9192V3.661H37.0152L36.9662 4.634C36.9382 5.138 36.8962 5.56033 36.8402 5.901C36.7842 6.24167 36.6886 6.517 36.5532 6.727C36.4179 6.937 36.2312 7.042 35.9932 7.042C35.9232 7.042 35.8229 7.02567 35.6922 6.993L35.7272 6.692C35.8019 6.71067 35.8579 6.72 35.8952 6.72C36.0912 6.72 36.2406 6.62433 36.3432 6.433C36.4459 6.24167 36.5159 6.00367 36.5532 5.719C36.5906 5.43433 36.6209 5.06333 36.6442 4.606L36.7072 3.346H39.2692ZM41.9924 3.318C42.4451 3.318 42.7927 3.43467 43.0354 3.668C43.2781 3.89667 43.3994 4.235 43.3994 4.683V7H43.0634V6.349C42.9467 6.56367 42.7764 6.73167 42.5524 6.853C42.3284 6.96967 42.0601 7.028 41.7474 7.028C41.3414 7.028 41.0194 6.93233 40.7814 6.741C40.5481 6.54967 40.4314 6.29767 40.4314 5.985C40.4314 5.68167 40.5387 5.43667 40.7534 5.25C40.9727 5.05867 41.3204 4.963 41.7964 4.963H43.0494V4.669C43.0494 4.32833 42.9561 4.06933 42.7694 3.892C42.5874 3.71467 42.3191 3.626 41.9644 3.626C41.7217 3.626 41.4884 3.668 41.2644 3.752C41.0451 3.836 40.8584 3.948 40.7044 4.088L40.5294 3.836C40.7114 3.67267 40.9307 3.54667 41.1874 3.458C41.4441 3.36467 41.7124 3.318 41.9924 3.318ZM41.7964 6.741C42.0997 6.741 42.3564 6.671 42.5664 6.531C42.7811 6.391 42.9421 6.188 43.0494 5.922V5.236H41.8034C41.4441 5.236 41.1827 5.30133 41.0194 5.432C40.8607 5.56267 40.7814 5.74233 40.7814 5.971C40.7814 6.209 40.8701 6.398 41.0474 6.538C41.2247 6.67333 41.4744 6.741 41.7964 6.741ZM44.8214 3.346H45.1714V6.461L47.7754 3.346H48.0834V7H47.7334V3.885L45.1294 7H44.8214V3.346ZM46.4384 2.786C46.1444 2.786 45.9064 2.71133 45.7244 2.562C45.5424 2.408 45.4491 2.19567 45.4444 1.925H45.7034C45.7081 2.11633 45.7781 2.268 45.9134 2.38C46.0534 2.492 46.2284 2.548 46.4384 2.548C46.6484 2.548 46.8211 2.492 46.9564 2.38C47.0918 2.268 47.1618 2.11633 47.1664 1.925H47.4324C47.4278 2.19567 47.3344 2.408 47.1524 2.562C46.9704 2.71133 46.7324 2.786 46.4384 2.786ZM49.5929 3.346H49.9429V5.012H52.4209V3.346H52.7709V7H52.4209V5.32H49.9429V7H49.5929V3.346ZM56.0802 3.346H56.4302V5.012H58.9082V3.346H59.2582V7H58.9082V5.32H56.4302V7H56.0802V3.346ZM63.8847 5.257H60.7417C60.751 5.54167 60.8233 5.796 60.9587 6.02C61.094 6.23933 61.276 6.40967 61.5047 6.531C61.738 6.65233 61.9993 6.713 62.2887 6.713C62.5267 6.713 62.746 6.671 62.9467 6.587C63.152 6.49833 63.3223 6.37 63.4577 6.202L63.6607 6.433C63.502 6.62433 63.3013 6.77133 63.0587 6.874C62.8207 6.97667 62.5617 7.028 62.2817 7.028C61.9177 7.028 61.5933 6.94867 61.3087 6.79C61.024 6.63133 60.8 6.412 60.6367 6.132C60.478 5.852 60.3987 5.53233 60.3987 5.173C60.3987 4.81833 60.4733 4.501 60.6227 4.221C60.7767 3.93633 60.9867 3.71467 61.2527 3.556C61.5187 3.39733 61.8173 3.318 62.1487 3.318C62.48 3.318 62.7763 3.39733 63.0377 3.556C63.3037 3.71 63.5113 3.927 63.6607 4.207C63.8147 4.487 63.8917 4.80433 63.8917 5.159L63.8847 5.257ZM62.1487 3.626C61.892 3.626 61.661 3.68433 61.4557 3.801C61.2503 3.913 61.0847 4.074 60.9587 4.284C60.8373 4.48933 60.7673 4.72267 60.7487 4.984H63.5487C63.5347 4.72267 63.4647 4.48933 63.3387 4.284C63.2127 4.07867 63.047 3.91767 62.8417 3.801C62.6363 3.68433 62.4053 3.626 62.1487 3.626ZM68.3834 6.692V7.91H68.0544V7H64.5964V7.91H64.2604V6.692H64.4774C64.7248 6.678 64.8928 6.48667 64.9814 6.118C65.0748 5.74467 65.1401 5.222 65.1774 4.55L65.2264 3.346H67.7954V6.692H68.3834ZM65.4994 4.571C65.4761 5.12633 65.4294 5.58833 65.3594 5.957C65.2894 6.32567 65.1634 6.57067 64.9814 6.692H67.4454V3.661H65.5414L65.4994 4.571ZM71.5801 5.117C72.1168 5.21033 72.3851 5.51133 72.3851 6.02C72.3851 6.33733 72.2685 6.58 72.0351 6.748C71.8065 6.916 71.4611 7 70.9991 7H69.4171V3.346H70.9571C71.3631 3.346 71.6805 3.42767 71.9091 3.591C72.1425 3.74967 72.2591 3.97833 72.2591 4.277C72.2591 4.49167 72.1985 4.67133 72.0771 4.816C71.9605 4.956 71.7948 5.05633 71.5801 5.117ZM69.7601 5.012H70.9361C71.2488 5.012 71.4891 4.95367 71.6571 4.837C71.8251 4.71567 71.9091 4.543 71.9091 4.319C71.9091 4.09033 71.8251 3.92 71.6571 3.808C71.4938 3.69133 71.2535 3.633 70.9361 3.633H69.7601V5.012ZM70.9921 6.713C71.6875 6.713 72.0351 6.47733 72.0351 6.006C72.0351 5.75867 71.9558 5.57667 71.7971 5.46C71.6385 5.34333 71.3888 5.285 71.0481 5.285H69.7601V6.713H70.9921ZM73.6281 3.346H73.9781V6.461L76.5821 3.346H76.8901V7H76.5401V3.885L73.9361 7H73.6281V3.346ZM81.5006 5.306H80.6396V7H80.2896V5.306H79.4356L78.2176 7H77.7906L79.1556 5.124L77.9026 3.346H78.2876L79.4356 5.005H80.2896V3.346H80.6396V5.005H81.5006L82.6486 3.346H83.0336L81.7806 5.124L83.1386 7H82.7186L81.5006 5.306ZM84.046 3.346H84.396V6.461L87 3.346H87.308V7H86.958V3.885L84.354 7H84.046V3.346ZM92.7935 3.346V7H92.4715V3.906L90.8825 6.531H90.7215L89.1395 3.913V7H88.8175V3.346H89.1605L90.8125 6.111L92.4715 3.346H92.7935ZM95.7628 7.028C95.4174 7.028 95.1048 6.94867 94.8248 6.79C94.5494 6.63133 94.3324 6.412 94.1738 6.132C94.0151 5.84733 93.9358 5.52767 93.9358 5.173C93.9358 4.81833 94.0151 4.501 94.1738 4.221C94.3324 3.93633 94.5494 3.71467 94.8248 3.556C95.1048 3.39733 95.4174 3.318 95.7628 3.318C96.1081 3.318 96.4184 3.39733 96.6938 3.556C96.9738 3.71467 97.1931 3.93633 97.3518 4.221C97.5104 4.501 97.5898 4.81833 97.5898 5.173C97.5898 5.52767 97.5104 5.84733 97.3518 6.132C97.1931 6.412 96.9738 6.63133 96.6938 6.79C96.4184 6.94867 96.1081 7.028 95.7628 7.028ZM95.7628 6.713C96.0428 6.713 96.2924 6.64767 96.5118 6.517C96.7358 6.38633 96.9108 6.20433 97.0368 5.971C97.1674 5.73767 97.2328 5.47167 97.2328 5.173C97.2328 4.87433 97.1674 4.60833 97.0368 4.375C96.9108 4.14167 96.7358 3.95967 96.5118 3.829C96.2924 3.69833 96.0428 3.633 95.7628 3.633C95.4828 3.633 95.2308 3.69833 95.0068 3.829C94.7874 3.95967 94.6124 4.14167 94.4818 4.375C94.3558 4.60833 94.2928 4.87433 94.2928 5.173C94.2928 5.47167 94.3558 5.73767 94.4818 5.971C94.6124 6.20433 94.7874 6.38633 95.0068 6.517C95.2308 6.64767 95.4828 6.713 95.7628 6.713ZM100.207 7.028C99.852 7.028 99.5346 6.94867 99.2546 6.79C98.9746 6.63133 98.7553 6.412 98.5966 6.132C98.438 5.84733 98.3586 5.52767 98.3586 5.173C98.3586 4.81367 98.438 4.494 98.5966 4.214C98.7553 3.92933 98.9746 3.71 99.2546 3.556C99.5346 3.39733 99.852 3.318 100.207 3.318C100.501 3.318 100.767 3.37633 101.005 3.493C101.247 3.605 101.443 3.77067 101.593 3.99L101.334 4.179C101.203 3.997 101.04 3.86167 100.844 3.773C100.652 3.67967 100.44 3.633 100.207 3.633C99.922 3.633 99.6653 3.69833 99.4366 3.829C99.2126 3.955 99.0353 4.13467 98.9046 4.368C98.7786 4.60133 98.7156 4.86967 98.7156 5.173C98.7156 5.47633 98.7786 5.74467 98.9046 5.978C99.0353 6.21133 99.2126 6.39333 99.4366 6.524C99.6653 6.65 99.922 6.713 100.207 6.713C100.44 6.713 100.652 6.66867 100.844 6.58C101.04 6.48667 101.203 6.349 101.334 6.167L101.593 6.356C101.443 6.57533 101.247 6.74333 101.005 6.86C100.767 6.972 100.501 7.028 100.207 7.028ZM104.987 3.661H103.559V7H103.209V3.661H101.781V3.346H104.987V3.661ZM107.199 4.676C107.652 4.68067 107.997 4.781 108.235 4.977C108.473 5.16833 108.592 5.45067 108.592 5.824C108.592 6.21133 108.466 6.50767 108.214 6.713C107.962 6.91833 107.596 7.01867 107.115 7.014L105.736 7V3.346H106.086V4.662L107.199 4.676ZM107.108 6.734C107.477 6.73867 107.757 6.664 107.948 6.51C108.14 6.356 108.235 6.12733 108.235 5.824C108.235 5.53 108.142 5.313 107.955 5.173C107.769 5.02833 107.486 4.95133 107.108 4.942L106.086 4.935V6.72L107.108 6.734Z" fill="white"/>
<rect y="11.1146" width="21.779" height="5.1114" fill="#0468FF"/>
<rect y="20.0041" width="21.779" height="5.1114" fill="#0468FF"/>
<rect y="28.8934" width="21.779" height="5.1114" fill="#0468FF"/>
<rect x="16.6676" y="2.22528" width="5.1114" height="5.1114" fill="#0468FF"/>
<rect x="25.7792" y="28.8934" width="5.1114" height="5.1114" fill="#0468FF"/>
<path d="M66.1755 33.6542C68.9117 32.9675 71.2996 31.3127 72.8884 29.0021C74.4773 26.6915 75.1573 23.8848 74.8002 21.1117C74.4431 18.3386 73.0735 15.7909 70.9498 13.9492C68.8262 12.1075 66.0954 11.0994 63.2728 11.1149C60.4501 11.1304 57.7308 12.1685 55.6279 14.0334C53.525 15.8983 52.1841 18.4609 51.858 21.2378C51.532 24.0146 52.2434 26.8136 53.8581 29.1067C55.4727 31.3997 57.879 33.0281 60.6227 33.6847L61.6436 29.5004C59.9318 29.0908 58.4306 28.0748 57.4232 26.6442C56.4159 25.2137 55.972 23.4674 56.1754 21.735C56.3789 20.0026 57.2155 18.4038 58.5274 17.2403C59.8393 16.0769 61.5359 15.4292 63.2969 15.4195C65.0579 15.4098 66.7616 16.0388 68.0865 17.1878C69.4114 18.3368 70.2658 19.9263 70.4886 21.6564C70.7114 23.3864 70.2872 25.1375 69.2959 26.579C68.3046 28.0206 66.8149 29.053 65.1078 29.4814L66.1755 33.6542Z" fill="white"/>
<rect x="25.7792" y="11.1147" width="5.1114" height="14.0008" fill="white"/>
<path d="M25.7792 11.1147H30.8906L47.5582 34.0049H42.4468L25.7792 11.1147Z" fill="white"/>
<path d="M75.5598 11.1147H80.6712L90.005 34.0049H84.8936L75.5598 11.1147Z" fill="white"/>
<path d="M104.673 11.1147H109.784L119.118 34.0049H114.006L104.673 11.1147Z" fill="white"/>
<path d="M106.673 28.8736L108.177 25.1978L115.385 25.1978L115.673 28.8736L106.673 28.8736Z" fill="white"/>
<path d="M99.3389 11.1147H94.2275L90.005 21.3375L92.5607 27.56L99.3389 11.1147Z" fill="white"/>
<path d="M109.784 11.1147H104.673L95.3387 34.0049H100.45L109.784 11.1147Z" fill="white"/>
<rect x="42.4468" y="11.1147" width="5.1114" height="22.8902" fill="white"/>
</svg>
